# xmcd
#
# Track frame offsets: 
#        150
#        15085
#        29815
#        49050
#        71015
#        96550
#
# Disc length: 1710 seconds
#
# Revision: 0
# Processed by: cddbd v1.5.2PL0 Copyright (c) Steve Scherf et al.
# Submitted via: ExactAudioCopy v0.95b4
#
DISCID=4c06ac06
DTITLE=DJ Ross - Lonely
DYEAR=1900
DGENRE=
TTITLE0=Phonomatika Radio Cut
TTITLE1=89er Remix Radio Edit
TTITLE2=Phonomatika Extended Radio Version
TTITLE3=Emotion XXL Radio Version
TTITLE4=89er Remix
TTITLE5=Phonomatika Mix
EXTD=
EXTT0=
EXTT1=
EXTT2=
EXTT3=
EXTT4=
EXTT5=
PLAYORDER=
